<svg width="25" height="25" xmlns="http://www.w3.org/2000/svg">
 <!-- Created with SVG-edit - http://svg-edit.googlecode.com/ -->
 <g>
  <title>BLiu1</title>
  <rect fill="#000000" x="0"  y="0"  width="25" height="25" id="svg_27"/>
  <rect fill="#00ff00" x="2"  y="2"  width="3"  height="10" id="svg_2"/>
  <rect fill="#00ff00" x="2"  y="2"  width="7"  height="1"  id="svg_3"/>
  <rect fill="#00ff00" x="7"  y="2"  width="2"  height="5"  id="svg_4"/>
  <rect fill="#00ff00" x="2"  y="6"  width="9"  height="1"  id="svg_6"/>
  <rect fill="#00ff00" x="9"  y="6"  width="2"  height="6"  id="svg_8"/>
  <rect fill="#00ff00" x="2"  y="11" width="9"  height="1"  id="svg_9"/>
  <rect fill="#00ff00" x="2"  y="14" width="3"  height="9"  id="svg_13"/>
  <rect fill="#00ff00" x="2"  y="22" width="21" height="1"  id="svg_14"/>
  <rect fill="#ff0000" x="9"  y="14" width="2"  height="2"  id="svg_17"/>
  <rect fill="#00ffff" x="9"  y="17" width="2"  height="4"  id="svg_18"/>
  <rect fill="#00ffff" x="12" y="17" width="2"  height="4"  id="svg_19"/>
  <rect fill="#00ffff" x="12" y="20" width="4"  height="1"  id="svg_20"/>
  <rect fill="#00ffff" x="15" y="17" width="1"  height="4"  id="svg_21"/>
  <rect fill="#ff7f00" x="17" y="20" width="6"  height="1"  id="svg_23"/>
  <rect fill="#ff7f00" x="19" y="14" width="2"  height="7"  id="svg_24"/>
  <rect fill="#ff7f00" x="18" y="15" width="3"  height="1"  id="svg_25"/>
 </g>
</svg>